<?xml version="1.0" standalone="no"?>
<!DOCTYPE svg PUBLIC "-//W3C//DTD SVG 20010904//EN"
 "http://www.w3.org/TR/2001/REC-SVG-20010904/DTD/svg10.dtd">
<svg version="1.0" xmlns="http://www.w3.org/2000/svg"
 width="700.000000pt" height="700.000000pt" viewBox="0 0 700.000000 700.000000"
 preserveAspectRatio="xMidYMid meet">
<metadata>
Created by potrace 1.14, written by Peter Selinger 2001-2017
</metadata>
<g transform="translate(0.000000,700.000000) scale(0.100000,-0.100000)"
fill="#000000" stroke="none">
<path d="M1400 6980 c-144 -31 -268 -86 -375 -168 -202 -155 -323 -350 -376
-607 -10 -47 -13 -645 -13 -2675 -1 -1438 2 -2644 7 -2680 4 -36 17 -101 28
-144 71 -281 294 -528 574 -639 50 -19 106 -38 125 -42 19 -3 53 -9 75 -13 54
-9 4056 -9 4121 0 99 15 299 92 345 134 8 8 19 14 24 14 14 0 97 70 161 135
143 147 230 327 260 540 12 82 11 3953 -1 4005 -6 25 -20 63 -32 85 -13 25
-419 438 -1038 1058 l-1018 1017 -1391 -1 c-1309 -1 -1396 -2 -1476 -19z
m3465 -1478 l863 -862 0 -1862 c-1 -2049 3 -1918 -63 -2009 -38 -52 -110 -104
-169 -121 -59 -16 -3934 -16 -3992 0 -59 17 -131 69 -170 121 -68 94 -63 -114
-62 2735 0 2858 -5 2637 67 2732 42 56 109 100 175 117 34 9 364 12 1267 12
l1222 0 862 -863z"/>
<path d="M2618 4535 c-2 -2 -32 -6 -68 -9 -218 -22 -465 -142 -629 -307 -323
-324 -408 -831 -206 -1229 51 -100 57 -111 103 -173 50 -68 1573 -1591 1617
-1619 36 -22 105 -24 143 -4 40 21 1574 1561 1625 1631 82 114 149 258 178
384 6 25 13 55 15 66 3 11 8 69 11 128 14 259 -64 508 -226 722 -9 11 -50 54
-93 96 -120 119 -273 212 -433 262 -75 23 -108 30 -195 42 -39 6 -221 6 -261
1 -96 -13 -228 -52 -322 -95 -48 -22 -147 -79 -157 -91 -3 -3 -16 -13 -30 -21
-14 -9 -60 -49 -103 -89 l-78 -73 -52 50 c-83 80 -98 92 -182 148 -174 115
-356 173 -567 179 -48 2 -89 2 -90 1z m192 -328 c44 -7 142 -38 189 -60 91
-41 155 -90 289 -220 76 -73 147 -138 159 -144 31 -18 88 -16 126 3 18 9 88
71 157 138 69 68 141 134 160 148 168 122 413 171 610 123 36 -9 68 -16 72
-16 4 0 42 -17 85 -38 233 -114 382 -312 428 -566 7 -44 8 -173 0 -230 -15
-102 -67 -232 -130 -320 -19 -28 -352 -368 -740 -756 l-706 -706 -710 710
c-524 522 -722 727 -753 776 -119 186 -152 414 -91 628 14 48 81 192 95 203 3
3 17 21 30 39 91 131 279 248 455 284 63 12 208 15 275 4z"/>
</g>
</svg>
